<svg xmlns="http://www.w3.org/2000/svg" viewBox="0 0 1000 1400"><g stroke="#000"><path fill="#ffe2d0" d="M449 1044l-58 39c-27 22-55 99-76 145s-41 108-61 172h169c32-48 77-104 94-161 19-19 15-41 64-136"/><path fill="#fde88d" d="M205 790c-18 32-49 60-88 86-4 29-6 58 19 78 5 7 10 14 19 13-9 14-38 3-50-22-5 8-1 14 4 19-14-6-28-31-33-47-9-8-18-21-25-39-4 57 2 104 34 123-18 4-58-7-71-67s3-120 3-120-20-14-11-76c10-62 130-202 153-249V271h430c-1 18 1 35-2 55 8 19 26 42 42 59s57 68 84 87c38 26 58 41 114 58 125 0 141 16 158 30 16 15 21 46 1 64l-11 9c2-25-18-65-65-78 26 29 31 43 34 61 7 20 10 38 5 51 18 27 28 61 20 113-1 22-7 38-15 51 30 32 29 94 23 96 4 58-20 85-27 90-6 6-24 30-43 19 25-6 41-56 35-88-4 32-13 44-25 56-11 12-21 24-47 20-11 3-21 5-30 1 10-9 14-9 18-14l9-11c32-57 28-90 20-155-11 19-23 27-29 28s-21 9-34 2c7-4 10-8 12-12-13 6-32 5-39-3 28 2 53-34 47-58-41-119-206-121-294-79z"/><path fill="#483496" d="M552 638h-3l-7 10c16-4 21 1 30 12 10 10 12 31 6 36-6 4-27 1-31-5-4-5-6-13-6-13l-7 19c19 1 25 7 32 8 7 0 21-1 23-4s1-18-4-29c-6-11-13-27-18-31-3-2-9-3-13-3zm14 83c-16 8-14 13-13 29 11 16 29 28 43 28s42-19 58-25c4 2 7 4 9 3 1-4-5-9-8-11l-10-1c-14 7-44 32-52 26-8-7-33-29-33-32s10-10 16-10c5 0 16 2 17 4 2 3 8 12 9 19 6 0 10-15 6-18-3-3-26-11-42-12zm-244 283s-16 6-24 24 3 34 8 33c5 0 20-8 20-8s-40 61-44 72c-3 10-3 22-2 29s6 20 9 21c4 1 8-9 8-9s-12-15-6-41 25-33 51-81l-4-22c0 8-23 32-32 28s4-40 16-40z"/><path fill="#ffe4dc" d="M197 641c-5-8-7-21-13-39s-23-67-1-82h172v365c8 13 18 57 28 71l59 161s9 30 18 42 27 18 33 28 6 16 14 32c0-5 4-9 9-6s4 9 5 15l4 15c2 5 0 4 3 11s-1 11-2 16-15 10-15 10H400l-17-148c-11-16-17-38-31-63s-44-78-56-111-18-65-19-69-29-53-40-89z"/><path fill="#ffe8d8" d="M179 677c-11 30 62 131 62 131 15 13 45 11 64-1l10 21c4 9 10 14 14 18l11 11c0 6 3 9 8 22s34 44 34 44l67 121 115 53 33 3c-21 43-39 99-52 150-14 51-27 97-39 150h187c34-78 83-179 100-229s26-92 31-122 1-57-3-76-2-28-15-40c-7-7-6-19-29-34-6-8-21-20-36-24l-11-5c-7-7-21-10-45-19s-59-10-63-10-12-10-19-18-29-22-30-25-7-39-11-53-8-40-21-59l-31-296H297c0 12 11 44 11 44l3 8s-11 5-23 13c-12 9-23 15-31 20s-32 9-46 18l12 61c0 15 15 42 30 50-8-3-27 0-39 14"/><path fill="#443496" d="M419 388c-6 38-33 108-45 138s-11 35-20 60c-12 10-14 12-25 30s-19 39-25 58-9 32-11 51 3 23 3 25-27 15-38 14-24-8-39-19-31-29-35-40-3-19-1-27 11-26 20-44 30-58 42-75c13-31 44-75 66-117l-3-8c-14 22-31 53-43 75s-22 39-28 53l-48 91c-11 22-15 33-19 49s-4 26-3 38 8 26 20 39 29 25 38 28 12 2 16 3c2 1 6-8 12-19s7-19 9-20 33-15 36-15 22 7 57 6 61-16 61-16l88-34c13-7 27-13 37-26 7-10 5-20 5-20l-126 9c-18-15-45-56-61-85 9-46 58-144 61-170s-1-32-1-32zm267 479c-17 0-34 14-38 18s-13 14-13 19 42 39 47 39 18-9 29-15c-10 13-26 41-54 73-17-13-34-39-42-45s-32-8-32-6c-1 2 0 7 2 9 10 1 19 4 28 9 17 21 28 29 39 39-25 28-69 49-108 54-39 6-71-2-94-21l-1 4c20 16 36 23 56 32 20 8 59 27 76 27 6 0 11 0 16-3 21-40 39-61 60-89 14 8 26 19 34 19s33-20 35-27c1-7 9-53 0-84 3-1 4 0 4-4h2c5 16 27 30 39 30 12-1 35-3 36-7l13 5c7 2 51-2 61-2s16 3 18 7 3 16 2 25c-2 10-6 19-8 24s6 5 6 5c4-2 13-21 13-40 0-18-22-30-31-30s-60 4-68-2c0 0 8-16 8-21s-10-18-14-20c-1-3-6-11-8-12-5 0-27 15-39 26-7-3-7-4-25-3 2-8 7-10 6-25-2-2-1-5-11-5 7 10 5 12 2 29l-2 1c-3-2-7-2-11-3-8-12-17-22-27-30zm-5 8c9 0 32 20 38 36-11 10-34 23-38 19-5-3-15-21-27-28-2-8 18-27 27-27zm119 21l11 8c-2 7-6 14-9 20l-32-15c13-7 20-8 30-13zm-62 16c6 0 9 3 23 2 9 3 28 12 36 18l-3 2s-24 2-28-1-21-13-28-21zm-22 19c9 34 6 61 4 67-1 6-26 24-31 24s-21-10-27-17c19-23 38-47 54-74z"/><path fill="#fee8d3" d="M423 396h100V80H350L175 258l49 26 10 16c4 6 6 8 10 8l9-2c1 13 2 30 12 49s29 39 34 47 25 23 30 27 16 2 34-4 53-20 60-29z"/></g><path fill="#4b2318" stroke="#000" d="M307 148c-11 0-21 1-27 5 27-10 60-1 73 9s15 10 23 19c-1-11-23-24-39-29-8-2-19-4-30-4zm139 49c-10 1-17 2-26 11 17-6 28-7 47-6 15 5 23 13 31 21-9-13-31-27-52-26z"/><path d="M324 196c0 5-10 9-10 9-12-2-19 0-19 0-14-2-28 8-28 8 18-8 23-6 23-6-21 6-29 17-36 24 10-6 12-5 12-5-2 18 7 22 7 22-7-8-6-18-6-18 2 1 2 3 5 8l7 10 17 14c4 4 8 4 8 4l3 3v-2c5-1 4 1 8 3-2-3-4-4-1-5l26-36c2 7 5 8 5 8-4-4-3-9-3-9 3 6 8 10 8 10-7-11-5-19-5-19 5 1 5 1 16 10 0 0-11-13-20-17s-22-6-22-6c7-7 5-10 5-10zm126 45c-4 6-9 6-14 8l-12-3c-4 0-11 2-17 7 7-4 12-3 12-3-6 9-16 15-16 15l9-3-6 7 14-12-7 29 6 19c4 6 5 2 7 7 3-3 6 1 8 4 0-3-2-5-2-5h3l22-5 13-7c-2 4-9 9-9 9 8-3 14-14 14-14 6 6 6 13 9 13 0-20-16-40-16-40 7 4 15 13 15 13-6-10-28-26-41-29 7-5 8-10 8-10zM298 401l8 28c-3-16-1-20-1-20zm-60 189c2 8 5 11 5 11l-9 4c12-4 21 0 21 0-9-5-17-15-17-15zm76 210l-9 7 3 7c1-6 3-7 6-14z"/><path fill="#fff" d="M325 213c4 4 4 12 1 22s-12 25-22 25-28-24-15-46c-8 2-15 9-15 9 0 19 6 25 6 25h-1c7 11 16 13 16 13 1-2 1 0 5 2s10 2 12 1 2 1 2 1c11 0 24-21 25-30l1-6-2-11zm102 41l-7 3c-11 15-12 41 0 49 0-4 1 0 6 2s9 1 9 3c16-1 22-5 22-5l2-2s13-10 13-17-12-23-17-23c0 0 4 15-5 26s-20 15-25 13-11-11-8-27 11-21 11-21z"/><path fill="#843a2a" d="M308 210l-13 2c-4 3-8 10-8 21s11 25 17 25 14-7 19-20 3-23-2-26zm124 45c-3 1-9 6-12 17s-2 26 5 29 19-5 24-15 4-21 2-24-16-8-19-7z"/><path fill="#46282a" d="M306 218c-14 0-12 26-1 26s15-26 1-26zm120 55c-2 5-1 13 4 15s10-2 12-8 2-12-4-14-10 2-12 7z"/><path fill="#b4773d" d="M288 235c0 6 7 21 16 21s17-13 17-21-5-7-5-3-4 13-11 13-10-10-10-15-7 0-7 5zm131 44c0 5 0 20 9 21s20-12 21-18-3-10-5-4-7 13-14 11-6-12-5-15c-1-3-5 0-6 5z"/><path fill="#fdfb73" d="M303 214c-3 7-11 7-11 7 8 3 7 10 7 10h1c1-8 9-7 9-7-7-3-6-10-6-10zm133 43c-4 3-3 7-12 6 7 4 4 6 5 12 5-5 4-8 11-5-6-5-3-7-4-13z"/><path fill="#fafef8" d="M315 222c-7 14-20 14-20 14 8 3 8 8 9 21 5-11 7-13 16-13l1-3c-8-6-6-19-6-19zm130 46c-5 9-10 11-21 12 9 4 5 12 5 22 10-9 8-12 19-12-6-7-4-16-3-22z"/><g stroke="#000"><path fill="#4c2935" d="M302 347c3 0 5 4 7 6s8-1 22-1 21 5 24 5 10 3 13 6 6 9 10 9h5c-1 3-4-1-15 7-9 6-47-15-47-15l-10-8c-5-4-8-4-9-9z"/><path fill="#e6a3a1" d="M321 364s8-4 14-4 7 6 11 9c0 0 9-2 11 1s6 7 4 13-4 17-12 17-7-14-13-22-15-14-15-14z"/><path fill="#ffe7d3" d="M471 411s-20 14-27 37-6 81-4 101c-6 17-8 42-18 100s-10 102-13 128-20 63-27 107-2 138-2 148-3 153-2 167 9 40 12 54l14 50c2 6 0 30 2 36s10 8 19 8 13-3 17-6c0 0 4 4 8 5s10 0 14-3 9-7 9-10c5 3 8-2 12-6s9-10 10-14v-10s9 3 12 2 8-6 11-10l7-13c1-3-1-8-4-12s-6-17-6-17l-8-2c-6 2-6 16-1 20-4 1-5 4-5 4-9 0-8-3-13-2 0 0-3-3-4-8s-4-8-8-22-8-25-17-39-7-15-12-18c0-14-4-10-4-44s2-63 8-101l22-129c8-39 5-62 8-78 2-16 11-51 10-58s13-54 19-74c24-16 23-17 36-36 0 0 15-59 16-95s0-85-12-125v-78"/><path fill="#feea93" d="M209 146c-22 16-41 50-45 103-17 26-73 152-73 194s8 52 22 63c-7-25 2-59 9-72 7 30 21 55 35 62 19 42 46 74 64 72a64 64 0 01-25-38c18 24 32 33 44 33 13 0 17-1 20-6-39-19-60-93-61-131 6 7 12 8 17 6-12-9-19-20-20-36 14 18 54 9 65-11 15-5 23-19 21-28-2 12-28 15-45-4-12-12-19-41-13-69-5-7-12-24-8-43 2-16 18-27 35-17zm295 134c-7 14-16 27-30 41-12 5-30 8-40 1 2 16 24 26 49 24 0 0 1 2-2 5s-10 13-15 15c-6 2-7 1-9-1-1-3-4-1-4-1-6 8-11 14-19 21-6-5-11-10-9-22-15 19-5 33 0 39s18 9 27 8 40-13 59-7 30 15 39 43c11-3 19-14 23-27 3 0 7-1 10-4 6-2 15-12 16-21 8 14 8 30-4 45 18-5 26-28 14-43 0-8-3-15-9-22 15 9 30 19 36 36 11-22-9-36-14-43-5-8-26-16-42-25-9-14-17-30-21-62z"/><path fill="#ffea99" d="M251 249s-6-12-8-22c-21 14-37 24-57 18 24 4 50-18 58-31-26 15-49 19-61 18-12-2-35-4-45-17 17 10 55-9 75-26-24-1-51-17-62-43 13 7 26 12 40 11 24-52 89-132 146-145 3-9 37-13 40-4 5-5 11-6 18-6 18-3 33 3 42 9 43 1 92 39 102 60 32 22 39 43 44 63 28 45 46 85 46 100s-7 21-7 21c3-31-21-63-48-95 20 57 15 75 18 108 13 7 26 11 39 4-8 17-33 22-54 20-1 11-25 11-40 0-4 2-10-1-17-5-15 1-31-9-44-28-14-20-17-46-15-66-7 21-16 38-30 46 8-16 12-36 11-63-7 22-17 47-33 68-3 11-3 22-1 33-34-13-30-38-37-67-2 12-1 25 6 40-19-11-27-54-26-87 0-16-4-29 5-53-7 9-6 19-23 39-16 20-29 30-47 38-10 11-20 22-32 32l-5 9s2-3 6-4c-5 9-5 8-4 25z"/><path fill="none" d="M307 148c-11 0-21 1-27 5 27-10 60-1 73 9s15 10 23 19c-1-11-23-24-39-29-8-2-19-4-30-4zm139 49c-10 1-17 2-26 11 17-6 28-7 47-6 15 5 23 13 31 21-9-13-31-27-52-26zm42 1076l1 3m26-23c3 0 7-1 8-3m-16-31l4 12c6 5 15 15 13 18s-13-4-15-11m-41-22c4 3 8 4 12 3m-14-10c10 5 12 10 20 14 3 10 14 24 21 28m-1 20c4-1 7 0 9 2m-14 2c3 2 6 7 9 14m-14-30c1-5-1-8 1-11m-22 47c4 5 8 11 11 19m-18-23c4 4 13 6 27 12m-52-3c2 4 3 3 7 8s17 21 23 25m-46 7c6-5 3-11 4-17m-4-6c6 9 8 18 15 24m-27-45l5 13m-29-657c9 9 17 18 26 31m-51-62l12 20m-51-11c9-20 23-37 27-37s12 22 12 22m-22 138c8 2 17 3 30-1m-61-85c-7 22-27 77 0 88 14 3 31 4 45 0m-58-5c1 4 8 4 13 5m-133-44c25 45 63 53 77 61-2 7-5 13-9 19m15-178l7 4m16 110c-14-31-5-83 6-99m14 130c16 23 59 40 92 25m-93 24c7-5 14-12 18-21m146 151c3 0 5 0 12 4l2 8m87-104c5-4 7-26 4-34m-112-2s-2-4-2-9 11-26 16-33m34-65c18-69 45-153 40-204M305 604c12-19 27-36 51-44m47-89c12-16 25-32 31-45m-76 91c6-24 11-18 34-37m-63 21l2 21m-15-7l15 11m-52-23c8 5 18 7 28 9m-48-21l8 6m44-55c6 18 9 20 13 36m508 542c2 3 5 4 8 5m30-1c8-4 17-8 23-13m47-84c2 6 2 13 2 21m18-90c9 16 16 37 17 69m-43-80c7-2 13-6 20-16m-25 16c8-6 13-14 15-23m-59 9l2 12m-72 27l9 3m-29-18l2 3m109-26c10 7 39-1 48-27m-101-2c9 19 35 34 54 34m2-64c14-12 23-32 24-61m-60 69c25 7 45-3 60-27m-85-6c0 20 9 46 31 60m-49-85c7 23 14 45 14 78m-93-217c47 53 86 109 100 177m51-149c15 13 30 27 47 53M780 541c31 17 60 29 97 53m96 50l2-11m-140-73c34 23 63 37 89 69m-16-65c12 12 23 24 36 52m-55-65c8 0 15 2 21 4m-126-31c11 3 24 6 43 6m-268-89c50 102 105 195 189 233M564 488c12 18 25 36 39 53m33-131c2 4 3 8 2 13m-48-57l10 8m-25 73c7 0 14-2 20-8m-39-17c5 1 10 2 13-3m-8-4c4 4 8 5 12 4m-31-108c11 13 24 24 38 31m-63 43c12-15 16-36 12-64m-9 50c3-7 7-13 6-35m-31 65c-11-14-8-27-2-40m-1-8c1 23 8 32 20 36 11 3 37-1 47-21m-85-47c6-3 14-8 29-25m-20 50c7-1 15-2 23-8m-68 51c12 0 24-4 35-14m-39 10c8 8 19 11 33 6m-7-39c5 1 10 1 14-6m-21 18l12-19m-40 18l4-4m2-40l3 3m-71 0l7-12c-4-5 0-4-1-9m-23 68l5 4M241 257c-2-4-8-6-12-1s-4 24 2 23 6 2 5 6 5 9 8 7 2-14 2-14c-9-5-8-12-4-15s3-6 6-9m-24-10c4 3 13 5 17 0m-4 17s7-6 7-10c0-5-7-13-7-20m14 41c2 11 1 16 2 34m25 69c4 34 12 52 24 55m-31-43c5 26 15 45 25 63m-26-42c1 19 3 38 7 55m-35-62c0 21 3 43 9 65m-27-60c6 30 15 51 25 73M85 1001c9 5 18 8 26 5m44-39l4-1m-23-12c7 3 12 3 18 0m-45 10c4 3 6 4 9 4m-19-36l6 13m-37-90c1 21 1 42 8 62m-28-48l3 9m8-104c-4 26-9 52 11 75m-53-35c6 9 13 15 21 22 9 6 14 12 24 11m0-111v-22m16 89c14 20 31 33 55 26m0-14a97 97 0 01-20-76c3 16 16 25 21 23m-21-58c10-71 20-94 31-118m-29 43c-4 60-7 120 29 139m18-104c9-16 13-31 22-62m76-45l12 1m-51 10l5 1m-34-47l4 8m-58-126c0 25 3 54 19 92m-38-83l3 21m94-2l5 3m-35-46c0 14 3 27 13 37m-3-30c-3-21-2-40 0-58m33 50c11 3 21 2 32-3m-20-27c0-16 0-33 3-50m-32-5c5 20 12 37 24 49m-72-62v-41m80-35l11-8m-42-17c10-9 19-16 27-27m7-33c4-28 45-68 78-81m-94 94c8-5 16-10 22-16m-62 31c8-1 16-2 24-6m71 36c14-17 27-34 40-60m7 77c6 2 13 4 19 10m-5-26l8 15m-46-13c10-3 42-9 52 8m52 45c6-3 11-3 16-1m-11-7c4-4 8-9 16-11m-17 0c20-6 33 7 45 19m-66-4c4-10 9-18 17-24m48-22c3-8 6-15 7-24m-26 7c2-6 4-13 5-22m-38 90c1-13 3-18 5-22m-63-59c7-34 19-67 41-99m-36 46c8-20 15-29 22-38m77-5c12 10 17 32 20 55m17 134c8 13 17 26 28 31m-5-12c6 6 12 12 22 18m-5-16c13 8 25 15 45 16m54-21c4-2 7-4 9-7m-86-85c2 21 3 39 11 70m-39-58c16 32 33 62 66 76m27-9l3-4m-69-128c7 8 14 17 21 33m-22-58c10 7 20 20 32 33m-77-75c8-1 22 6 32 11M394 19c8-6 17-10 26-5m-11 5c6-4 15-7 28-7m-57 0c3-4 8-7 15-10m-22 12l4-6m-40 4h20l1 1"/></g><path fill="#3c0a00" fill-opacity=".5" d="M395 14c-12 0-20 10-15 16l-7 4 8-2c5 2 10 4 15 4l-7-6c0-5 8-11 13-15zm298 1386c56-137 172-328 120-460l-4-2 12-25v-7l-22-29c4 9 1 19 1 19l11 8-12 26-38-16-23-2c-1-6-12-6-14-5 12 70-2 98-2 98 3-36-6-74-6-74l3-21c-30-48-42-42-81-6 6-20 30-32 30-32l-41-8-7 11c-2-32-10-36-44-54 0 29-7 35-7 35 5-32 7-29-3-59-9-30-4-57-12-83 144-55 250-35 282 70 28 47-2 69-2 69 28-4 33-29 33-29l25 13c11 37 15 71 10 105l7 10c17-34 11-75 11-75 31 21 45 66 45 66 8-63-18-104-18-104 23-24 22-59 24-75-17 34-51 31-51 31 43-19 51-64 51-64 0-18-11-45-11-45l2 17c-45-108-194-148-285-221 11 26 35 55 66 85-64-31-101-87-128-152 0-7-1-13-6-19 0-7-2-15-9-22 13 8 26 15 35 32 4-13-11-32-32-52l-23-12-8-22 7-28c13 1 26 0 39-7-50-18-71-45-85-75 14 19 26 39 50 54 5-23 2-47 1-72l-10-32c46 52 48 84 48 84 5-7 3-27 3-27-9-31-42-83-42-83-21-50-66-65-66-65-30-36-65-29-65-29 21 14 26 31 26 31-19-18-45-18-45-18 26 18 32 45 19 83 0-34-22-64-22-64 29 57-33 92-27 169-22-21-40-39-35-84-7 21-10 43-9 65-6-16-8-36-8-60 8-40 23-71 41-99-18 17-32 50-41 82 0-10 0-22 5-36-10 13-12 41-57 69 15-17 27-40 37-67-5 7-6 16-10 15-16 32-39 63-72 93l-5 9 3-3-2 16c11 0 15-12 36-19l20-29 22-1 8 17-13-1 4 14c7 2 12 13 12 13l3-18 9 3c0 36 12 52 12 52-2-16 1-32 1-32 6 9 13 10 13 10 0 26 9 41 25 48l-1-24 7 3 1-11 11-9-4 6h6c12-17 33-7 33 12 7 1 11 9 9 25 8 0 10 21 10 21l18-12c-21 31-51 20-51 20 0 12 24 16 24 16-9 18-31 40-31 40l-12-11c-4 10-1 23-1 23-10 10-71 36-86 34-16-3-58-57-58-57-6 7-16 11-16 11-33 36-65 11-65 11 0 22 20 36 20 36-10 3-17-6-17-6 1 29 13 66 13 66l44-16 44-29-12 21 1 13-13 21c43 19 29 3 55 24 7-35-25-87-26-109 42 73 43 54 61 74-9 17-10 36-23 30 5 18 10 4 17-11 6-17 8-10 31-29l-6 17 6 2 12-29c16-20 38-41 40-50 13-8 20-3 20-3 26-22 50-22 74 1 25 103-82 344-88 359s-2 56-2 56l12-15s0 63-13 117-48 246-46 256-13 8-13 8c-2 13 18 97 27 105-9 24 3 39 3 39-11 0-12-15-12-15l-41 71m59 0l38-55c12-6 39-24 34-42 18 10 38-19 28-29 12-16 2-28-1-41 18-27 19-55 59-130 5 0 10 0 16-3-15 29-26 60-36 93 12 66 28 135 49 207M271 125c-40 43-87 40-87 40 36 7 56-3 56-3zm200 32c5 35 11 62 24 86-5-1-24-32-28-70zm-134 3l-3 18h-11zm-92 53l-14 8 7 1zm126 4s5 13 6 30c0 0-9-17-6-30zm-145 6l-7 2c-7 8-8 16-8 16l5-2zm-26 8l-18 1c-20 51 22 89 22 89-25-50-4-90-4-90zm37 0l-11 7-2 6c10 6 18 0 18 0zm-21 12l-6 2c-11 73 26 129 62 121-19-25-19-60-19-60-26 6-38-44-37-63zm11 31c2 10 11-1 9 11-1 6 12 16 10-5 4 0 6 2 6 2l-1-9c-3-1-6-7-12-4l2-5c-9 6 0-6 0-7-7-11-19 3-14 17zm142 27c-4 6 0 11 0 11l-6 10c12 5 20-5 6-21zm-201 20c-15 67 5 186 67 228-39-45-46-98-49-151-9-22-14-48-18-77zm28 16c-5 23-1 50-1 50 32 15 51 7 68-15-59 24-67-35-67-35zm107 9l-4 1c2 11 3 0 19 14-3-5 4-9 4-9-19 4-14-6-19-6zm35 7l13 3c-5-7-13-3-13-3zm18 4l8 3c-2-5-8-3-8-3zm136 5l4 12s-5 8-5 18c0 0-7-10 1-30zm-151 1c0 13 6 15 6 15l1-6c11 9 8 15 8 25 8-12 9-32-11-29zm30 3c3 7-3 13-3 13 14-9 12 1 18-6-5-9-6 5-15-7zm-235 14c-7 49 7 99 21 116-16-38-20-77-21-116zm193 10c5 5 10 13 15 7-6 1-11-4-15-7zm-45 84c-22 11-14 25-14 25zm123 16l-18 15-9 21c11-12 17-24 27-36zm32 19c-2 35-34 45-26 66s12 78-9 83c5 11-4 3-4 3 8 30 5 17-7 4 13 20 12 39 4 56-8 18-27 35-53 32 6 2 12 3 19 1-3 6-8 7-15 8-7 16-31 14-39-4l-14-2s1 9-4 15-29 5-29 5l-1-4c-4 5-6 16-13 19 5-6 7-13 9-19-24-10-32-17-52-26 12 14 28 22 48 26-3 14-24 29-46 24 9 7 20 14 37 14 12 9 31 10 51 3 15 40 11 54 23 74 12 21 24 49 31 74 6 25 18 81 30 116 3-58-2-86 0-129l-19-51c-9-10-15-25-20-40l-6-8c13 11 20 11 26 20s13 15 21 20c14-83 31-83 30-141 4-70 18-145 29-199-1-13-2-25-1-40zm-167 0l-4 7 1 14-14 24 2 1c3-8 9-16 15-23zm19 24c6 10 25 6 25 6-10-10-25-6-25-6zm-71 23c0 17 5 29 5 29l2-3c-5-11-4-23-4-23 2 5 4 9 8 13l-6-14zm143 0c-20 1-35 14-44 26-12 17-23 37-50 31 0 0 11 8 13 20s-6 36-3 48c2-39 27-107 82-119zm5 0l-1 5 20-1c-7-2-13-4-19-4zm-113 5l-3 1c-4 8-7 21-8 30-5-4-9-9-11-15l-1 3c4 8 10 15 17 21-1-15 0-29 6-40zm-81 7c-15 43-20 95-20 95-17-34-10-78-10-78-25 54-31 118-31 118 0 37 21 58 21 58-16 1-21-23-21-23-5 30 8 59 8 59-66-24-61-124-61-124-47 96 6 172 6 172-14 6-32-13-32-13-20 94 20 163 20 163 17 9 31 6 31 6-46-26-34-123-34-123 8 24 25 39 25 39 11 35 31 46 31 46-8-11-2-18-2-18 29 48 50 22 50 22-13 0-19-13-19-13-32-26-19-78-19-78 60-36 86-83 86-83-21-19-41-38-34-86 3-5 8-8 8-8-4-2-8 3-1-8l-4 4c5-20 16-40 24-56zm802 2c15 31 3 60 3 60l8-7c5-32-11-53-11-53zm-622 23c-6 0-13 13-14 18 0 0 12-13 15-10s1 16 3 29c4-19 1-37-4-37zm198 45c23-3 46 58 33 63 0 0 1-45-34-58zm-239 29c-13 30-20 71-7 84-12-24 0-56 7-84zm246 65l4 15 1-4c-10-8 5-13 12-15-11-3-17 4-17 4zm68 34l27-13c22 10 1-8 1-8-12 0-28 21-28 21zm-328 1l9 4c1 3-11 6-14 3zm430 102l5 8c0-5 5-5 5-5zm-26 8l16 20 13 3c3-19-2-23-29-23zm38 8l-6 15 25 3 10-9c-9-6-29-9-29-9zm141 47l-43 1-20 10c48 3 64-8 78 3 0-6-15-14-15-14zm-299 18c47 0 31 24 100 71l4 7c-65-31-55-65-102-69zm317 1c-3 20-16 38-16 38 11-10 18-22 18-22zm-568 82c-6 7-12 15-24 17l-4 11c10-3 21-7 34-18zm119 12c11 11 24 17 37 23 20 19 29 22 29 34 0 13-7 38-27 79-19-14-30-9-47-60 1-25 4-50 8-76zm-159 79c-6 11-9 22-11 33 4 15 8 27 16 9-9-15-9-29-5-42z"/><path fill="#fff" fill-opacity=".7" d="M281 46c-10 20 26 48 62 70s116 44 149 41c-86-13-165-63-211-111zm255 105c0 7-2 9 6 8v-5m12-3l-1 3 7 3v-3m-265 89c-3 12 20 13 17 2-6 7-14 4-17-2zm-17 18c-5 0-6 7 0 7s5-7 0-7zm145 27c-6 8 14 15 15 4-8 5-12 1-15-4zm-98 91c-5 0 1 9 7 9s-2-9-7-9zm149 45c-11 0-17 15-7 15s18-15 7-15zM327 586c-7 0-10 11-4 11s11-11 4-11zm-101 44c-11 0-15 17-4 17s15-17 4-17z"/></svg>