<svg viewBox="0 0 1000 1375"><defs><linearGradient id="a" x1="568" x2="586" y1="64" y2="139" gradientUnits="userSpaceOnUse"><stop offset="0" stop-color="#bab8ad"/><stop offset="1" stop-color="#ae9d84"/></linearGradient></defs><path fill="#f3f7f6" stroke="#def9fd" stroke-opacity=".5" stroke-width="1.5" d="M651 331l14 22 20 10c4-8 9-4 6 3 5 0 2 25 5 40s18-22 18-22c0 13-5 22 3 22s18-71 18-71l3 50c6-19 8-54 14-81 7 13 15 24 24 37-34-72-19-76-22-99 12 14 12 29 45 38-42-29-33-81-33-114s-21-85-45-110c-24-24-58-45-99-51-41-5-55-1-63 4-30-3-52 10-69 25s-30 18-52 78c-33 56-63 129-8 209-30-54-35-115 2-188 0 15-5 24-5 49-12 9-30 14 2 28-8 17 5 17 5 17 5 54-2 106-32 129 28-13 37-46 40-81 1 29-4 52 0 71s2 34 8 60c2-20-1-28-2-40 0-11 3-17 3-36 5 29 10 47 10 47 9 17 10 26 26 45-5-19-13-31-13-49l8 18c10-2 10-10 15-16 11-1 10-6 16-7s3-23 3-23c4 11 4 19 4 19 8 3 6-7 14-5 8 1 7-1 11-1 5 1 19-27 19-27"/><path fill="#c4c8c9" stroke="#e6f2e8" stroke-width="1.5" d="M729 279c-3 44 11 47 11 84 5-25 5-43 9-65l9 11c-12-34-5-54-8-84 9 19 18 42 33 46-33-46-14-59-24-128-10-70-88-157-198-131-33-2-55 14-77 32s-60 69-49 172c3 15 1 25 4 46l4-31c1 76 17 102 30 164l-6-116"/><path fill="#555346" d="M713 251c27 35 17 96-1 164l3-116h-11s-13 23-19 58c0 0-84-27-162 2 0 0-1-17-11-47l-1 44s-5-3-4 11c0 0-11 0-24 18-17-38-18-79-15-134"/><g stroke="#000" stroke-width="1.5"><path fill="#ffefe2" d="M655 405c-2-33 1-58 3-63l8-12c26-20 31-40 50-81 49-259-308-269-238 32 0 0 1 9 9 13 9 5 7 8 13 7 15 25 24 34 45 45 8 7 7 14 5 59m-310 858l37 15c41 16 96 55 210 81 114 25 153 3 172-9 20-12 41-60 41-60-5 15 15 42 35 60s181 59 207-54c108-351-782-241-702-33z"/><path fill="url(#a)" d="M555 102c8 46 11 45 27 75l-14-57c9 28 12 33 20 48l-1-7c9 3 9-2 44 0l1-4c-11-22-18-45-23-70 10 26 17 32 25 47l15 21 19 3c-7-25-8-30-28-80 16 26 29 52 38 79 11 3 21 10 30 24C743 66 596-37 495 60c-47 52-68 210 25 243-14-8-29-22-29-39-13-48-5-100 10-139-3 52 3 52 7 74-2-31 9-77 31-122 1 25 3 67 23 97-8-24-9-48-7-72z"/><path fill="#f3faf9" d="M414 543l-37-99c-2-7 3-36 19-39 16-2 76 17 95 16 7-4 14-1 15-6l-4-4c-10 1-10-9-1-11 2-21 10-8 16-7 11-5-9-28 29-5 9-2 5-7 25 3 0 0 1 7 6 11 13-8 9-15 38-7 11-3 9-10 31 0 13-32 23 4 33-13 0 0 4 3 4 6 12 1 6 2 7 18 0 0 3 3 2 10 10-3 11 1 22 5 20-9 94-28 102-16 8 11 5 43-12 59l-17 1v87m-454 498l-32 117c-26 18-50 39-43 93 0 0 7 15 19 18-5 7-39 1-47-21-35-15-72-12-90-16-14-3-29 3-65-8l172-137c0-7 4-10 6-17s3-18 10-29m600 30l32-11c0 9 5 11 7 27"/><path fill="#bab8ad" d="M501 74c-32 67-38 189 23 204-26 1-50-19-57-54 7 45 35 75 64 82-38-6-97-27-86-127 0 0 2-35 13-63 14-46 39-84 97-93 72-36 182 42 181 122 9 83 3 167-19 247 4-30 9-66 11-91-10 51-22 87-25 98s-5 27-15 51c15-51 10-156 13-174s3-59 3-75c1-15 2-39-13-78-7-27-21-56-42-76"/><path fill="#3abea5" d="M208 1124c-8-6-15-9-22-9-9 0-31 3-33 17 4 3 5 9 6 18"/><path fill="#99e423" d="M887 1103c24 2 48 7 74 24 26 3 23 27 23 50 1 6 9 64-6 74m-763-63l-51 16c-8 16-5 27 1 40 0 4-18 3-22 0-3-3-8-21-8-30-20 7-36 16-42 26l-81 4c-15 0-11-24 7-42 18-17 48-32 69-39 89 2 58-43 121-44"/><path fill="#fff58c" d="M752 495c15-4 21-19 28-36 0 0 28 2 41 30s15 101 13 108c-3 7 6 93 6 110 19 92 25 190 44 274 3 7 8 13 9 18 1 4 21 60 2 70-3 5-22 7-32 11l-645 57c-7-23 14-35 29-41 9 11 20 22 40 26l26-47c-28-3-34-13-49-19-1-13-10-11-10-27s23-23 33-47c31-110 41-131 44-139s7-9 9-14c2-6-9-17-5-24s26-2 26-9c0-8-11-14-11-24s14-91 14-91c3-32 11-73 14-107s16-65 14-94c5-15 9-21 14-27 4 27 12 36 22 45l203 68"/><path fill="#f4ea7b" d="M428 499c5 0 12-5 25-10 9 12 13 25 29 25s19-3 27-11c6-6 19-15 28-20 7 14 17 32 25 34s13 21 28 21c14 0 10-42 35-54 8 13 4 24 10 37 8 13 17 21 28 11 26-10 30-27 51-49l31 14 7-2c4 9 5 28 5 47s3 34 3 51c0 23-3 41-4 62 4 20 1 61 12 146s26 120 26 120c14 13 2 10 13 52 27 28 32 56 44 87 25 11 55 21 56 47 7 5 10 16 11 24 28 8 48 15 48 27s6 24 9 66c9 12 6 21 17 29l7 17c-21 5-24 14-42 14l2 14s-10-2-18 2c10-43 2-55-4-79-16-10-28-19-35-28-7-11-17-18-30-34-12-16-48-32-67-43s-54-7-68-6l-3 5c-44 23-42 31-62 46-41-61-88-64-133-21l-1 10-72 44c-16-15-63-21-98-15l-43 38-9-1c-1 7-13 28-17 13-4-16-7-11-9-24s-15-24-24-24c-5 0-19 8-26 17s-77 49-77 49c14-86 11-98 38-86l9-49c29-7 46 6 67 10 1-45 2-36 26-49 6-34 21-87 23-93s23-4 28-11 35-63 38-78c2-15 12-39 17-43s15-3 20-8c0-6 6-2 9-9s-1-53-2-58c0-6 19-16 19-16-2-10-12-20-11-28s-3-125-3-125c-2-35 5-90-3-98"/><path fill="#81dd42" d="M735 116l-15-7c8 8 14 18 19 28 0 0-6-2-9 5l-25-42s-5 1-8-2c-9 11-15 23-21 34-2-4-4-9-4-14 5-8 10-15 17-21-10 1-18-1-25-6l-2-22v-1c11 5 22 9 32 15 7-2 10 1 12 5 10-2 20 1 32 6M467 194c-11-4-15-6-22-6 0 0-2 2-4 1l-4 4c1 11-1 25-2 32-5-1-10-2-6-19-2 4-3 8-6 9-6-5-8-12-12-15 6-9 17-15 21-16l4-5c7-15 14-22 21-28 6 8 2 12 9 22l-12 8s10-2 16 1m206 532c-11-46-11-161-59-276l-20 1c-24 80-41 169-42 276l-15-8c-1-70 16-199 39-263-30 16-38 17-58 29 0 0 2-8-4-22 20-10 52-22 78-29 6-2 18-6 22 1 26 9 56 11 75 30-1 7-3 14-6 20l-53-27c34 77 30 90 36 112s24 138 23 142"/></g><path fill="#c4f330" d="M949 1258c5-50-12-49-29-119-20-25-36-32-63-48-20-42-16-97-65-123-5-18-9-37-20-52 9-8 0-18-7-28l-20-122c-3-53-8-106-15-159-3-40-7-81-15-119l-7 3-6 8c22 115 14 171 22 263 13 94 8 116 20 127 20 27-9 18 5 30 15 13 4 10 11 42 35 15 23 29 36 73 46 21 33 24 34 52 10 0 13 6 16 11 56 22 44 33 59 60 3 11 5 24-2 36 12 15 35 27 35 27m-527-80c-7-5-3-19-12-37 6-9 16-7 9-27s-18-33 2-41c-3-19-9-39-5-56 7-7 18-6 34-15 8-22 4-59 4-93h25c6-88 0-88 14-109-1-50-2-169 2-247l-11-1c-3 47-12 88-1 150 4 70-12 82-10 95-16 13 5 38-26 108-14-3-13 25-35 102-44 4-16 37-18 58 0 0-14 10-16 19 0 0 25 23 14 30-35 11-20 43-26 66l-21 2c-12 10-12 22-9 36-12 3-12 17-7 35l7 1"/><path d="M539 77c-7 9-10 19-12 30 3-7 5-13 12-20zm101 151c6 0 12 7 36 5 2 2 2 4 5 4l-4-8c5 5 8 7 12 6l-5-4 10-4c3-1 5-5 5-5 4-18-6-27-15-38-12-7-20-15-36-15-11 0-18 2-18 2 0 3 4-1 10 1-8 2-15 7-15 7 1 4 3-1 9-3 0 11-4 9-6 13 2 1 5-1 5-1m-81 5l11 2-14-12h12c-9-1-12-4-12-4 9 0 8-1 8-1l-12-1c-18 0-33 5-48 29-3 13-6 28-3 36l2-4 5 4 9 2c-3 5 4 5 4-1 3 2 3 11 6 2l4 2c6-3 10-3 16-5s8-3 15-3l3-24m37 30c-3 0-2 5 0 5s2-5 0-5zm-129 28c0 25 0 49 5 72-3-25-3-48 0-67m249 99c6-28 13-72 9-96-2 39-13 71-22 104 11-16 11-28 15-42m-118-48c0 4 6 1 13 4 1-3-8-3-13-4zm-9 1l-12 3c1 4 10 0 12-3zm38 57c14-1 10-8 18 0 2 16-3 18 0 33l3-4 3-38 9-14m-121 16c9 4 7 23 6 40l3-1v-30c0-4 4-3 4-3m-37 60c-6 1-13 3-15-3l-4 2 4 4c8-1 14 2 20 6m23 0h11l-4-6m61 3c4 12 12 0 12 0-4 2-8-2-12 0zm167 41l14 5h6l-4-5m-95 34c9-7 19-5 19-5l-10-5m41 54l-5-17c3 19 3 38 10 58-5-31 0-56-5-74m-314 84c-6-17-13-30-18-52 2 24 13 40 18 70m71 58c-2 19 0 39 2 59 1-20 2-39-2-59zm-50 95c-9 4-9 15-7 28 3-8-1-16 7-28zm76 133c22 7 51 11 69 12-24-8-31-5-69-12zm111 13c29 5 57 10 85 9-32-6-56-6-85-9zm158 68l-4 2 16 12m19 35c3 24 6 49 20 74-4-25-9-21-7-31l23 5-23-10m-347-16c-9 4-3 8 5 23-2-8-8-15-5-23zm-246 64c4 5 6 11 6 11l13 3v-2m395 41l7 11c2-14-3-10 18-33m-287 38c-20-5-31 3-31-5l-9 6m120 41c-14-25-23-20-1-39-18 11-20-6-20 10l-6 1m431-8c11 19 11 51 11 51 5-19-2-30 0-38m-648 36c-5 10-1 33-1 33 5 12 16 11 16 11-20-9-15-44-15-44z"/><path fill="#574b32" d="M633 132s-7-2-12-1c-1-3 7-3 11-1m-117 12s14-8 30-9l1 3s-18 1-32 9m148-10c4 1 7 5 10 6v1l-9-4m-163 15l-14 13c4-6 9-11 14-15"/><path fill="#fff" d="M674 234c9 0 17-1 20-7 2-21-17-46-41-46-6 0-13 2-20 7-4 16-4 45 11 38-12-8-8-42 12-42s30 36 16 45m-134-40c-13 0-27 8-36 29-3 10-2 19 1 25 5 3 18 5 23 0-19-9-9-49 8-49s24 16 19 42c10-1 12-27-1-43-4-2-9-4-14-4z"/><path fill="#72143f" d="M657 192c-16 1-12 29-6 33s15 4 19-1 3-33-13-32zm-122 9c-13 0-17 31-7 36s19 0 21-10c2-8-1-26-14-26zm123 1c8 0 7 14 0 14s-9-14 0-14zm-121 9c8 0 8 14 0 14s-8-14 0-14z"/><path fill="#e64882" d="M669 225c-4 5-19 4-21-3l2-7s9 4 16-1c3 3 3 7 3 11zm-121 7s-6 10-19 6c0 0-2-7 1-14 0 0 9 5 13-2 0 0 5 2 5 10zm-50 942c-10-34-61-123-61-126 0-4 27-6 27-6-20-77-24-57 17-79 11-26 8-67 17-77h18l7-8c8-131 4-282 22-378l4 6c-4 36-5 77-5 113 0 0-6 69-5 88l6 4c1 57-1 118-5 181-37-2-19 19-43 74-12 3-3 7 7 78l-5 4 2 5-20 11c21 24 23 32 62 72l-4 4-2 10m138-435l11-7c3 66 10 179 21 202l-24-2c-15-32-8-134-10-205zm31 382c30-24 47-29 8-44 0-14-3-29-9-43s-3-27-10-45l4-39s-11-7-14-15l28 3 16 10c3 15-25 33 4 45 4 27 6 54 18 77 9 4 43 0 46 10 4 9-20 23-20 30 17-2 33-4 49-1 10 9 12 8 10 32 14 8 24 21 29 34-20-15-42-25-63-37-12-10-26-19-39-25m208 103c1 11 3 21 3 32 9 13 8 22 17 29l6 16s-35-55-59-81l-17-49s27 33 50 53z"/><path fill="#f9c6ec" d="M653 205c-3 0-3-5 1-5s2 5-1 5zm-118 11c-4 0-4-5 0-5s4 5 0 5zm145 10s-9-3-14-10c0 0 10 4 14 10zm-125 6s-9-4-12-10c0 0 9 3 12 10z"/><path fill="#1c4207" d="M597 439l20-1c1-6 2-11 0-15-6-7-22-1-22-1-28 8-54 17-78 29l1 2c22-12 49-20 76-28l2 11c1-3 3-7 2-12 18-2 17 0 17 13-6-2-14-1-21 2-4 8-7 23-9 42m-6-37l-8 26c5-8 9-15 12-24l8-7m99 247v14c-5 6-8 6-14 11v3c4-1 14-9 17-14"/><path fill="#280f00" fill-opacity=".3" d="M673 73c-7-12-15-14-25-26 0 0-23-24-66-27 41-3 57 18 70 24s23 18 31 34m-90 84l-6-1 1 8c-17-23-20-97-14-122 0 31-1 75 19 115zm-93-36l1 19c-7 13-8 30-15 47l-1 47c-12-39-14-99 16-165-12 40-15 71-14 98m53-76l-20 27 19-46m125 44l-8-3-15-39m-26 21l-2 5-4-20m85 17s26 79 11 117l-1-35s-8-10-12-21l11 7-15-58m-38 47c-6 4-12 6-19 6-1-8 11-7 19-6zm-95 12c-12 1-18-2-26-2 2-4 32-7 26 2zm139 56c-5-36-34-50-62-34l1-5c22-26 68 9 61 39zm-247-27c-4 2-8 3-10 13v-21l10-6m109 13c-30-16-53 7-55 41-12-20 12-53 35-53 0 0 15-1 20 12zm-65 69s4 14 16 26c0 0-47-31-42-101 0 0 2 54 26 75zm56 170l-21-17c6-8 10-18 21-22-7-3-17 8-30-6 5-3 4-7 4-11 10-1 14 5 17 11 7-6 15-11 26-6-2-5-5-11-12-10 0-12 1-24-7-31 0 0 48 20 56 20s45-17 65-36c-9 10-12 28-12 53 9-9 15 13 25-1 3 2 3 4 4 6 13 1 5 6 7 18 3 4 2 7 2 10 0 0-74 49-99 38 0 0-3-9-14-10l12-4c-4-3-9-6-13-13m-72-12l-4-4c5-1 7-5 7-10 11 3 13 12 17 20-6-5-13-8-20-6zm-127 32c1-16 13-31 20-31 13 0-2 51 24 78-11-6-24-18-31-10m413-20s-19 3-33 13c8-19 15-43 25-44m-369 65s-7-54 1-54 12 43 44 68m272-15s-34 5-57 17c0 0 40-54 50-54s3 28 7 37zm-215-22c10 0 13 34 30 41-26-6-47 3-74-2 25 0 34-39 44-39zm118 60s-25-18-44-20c18-49 34-40 44 20zm-207 71c-7-33-13-96-3-101 12 20 0 51 3 101zm327-78c10 119 28 187 20 375-7-17-13-34-15-55-32-58-18-99-23-157M559 896c1-85 3-165 10-242 2 85 2 177 8 246M464 748s0 8-7 8c-1-36-3-71 1-98 13 10 23 17 6 90zm-20-31s-41 30-59 39c0 0 49-35 58-71m-22 134l15 16s-8 8-26 12c-11-7-20-14-29-26m12 71s-3 37 4 66c23 15 55 2 80 11-43 2-89-1-126 7m501 75c11 24 58 17 68 85-31-47-25-34-68-53-7-26-8-52-23-78l1-69m-240 97l-19-5-2-47m-307 137c5-23 5-42 2-61l8 1c-11-24-23-18 52-70l-22 86c-30 12-21 13-25 48m292-50l-11-9c32 8 56 6 83 6-6 6-18 10-31 12m70 65c-16 11-9-16-51-59 58 0 26 32 51 59zm-8 16l30-28s-17 25-8 65m-385-24s-36-13-66-13c38-21 51-21 66 13zM9 1244c-24-16 23-67 79-80l20-1c-32 27-53 48-51 55 77-34 72-13 116-34l-10 63-19-2c1-8-51-7-51-4m198-29c12 19 8 37 25 5-1 43-6 48 68 111l-107-50c-9 9-41-2-47-20-21-9-41-12-60-14 27-20 48-26 69-44 17-25 47-28 52 12zm609-18l37 27c19 51 7 132-71 146 56-29 42-68 43-105m-422-27l-2-20c10 8 26 23 2 20z"/><path fill="#f3f7f6" stroke="#def9fd" stroke-opacity=".5" stroke-width="2" d="M730 91c7 6 4 15 5 25l3-21zm-92 110c14 9 15-8 9-12s-23 3-9 12zm-118 0c-14 0-5 16 3 16s11-16-3-16zm284 200c20 1 11 35 5 57 13-9 22-63-5-57zm-83 17c21-3 41-7 62-14-36-1-62 14-62 14zm-330-13c-8 5-20 28-12 42 6-45 26-40 69-33-14-5-49-14-57-9zm422 71c12 34 16 79 20 123 5-11 4-103-20-123zm-421 15c-7 44-19 80-21 135 8-26 22-111 21-135zm-32 211c-11 64-21 67-5 82-8-18 4-10 5-82zm480 5c2 30 8 66 15 94-3-29-1-65-15-94zm-488 93c-33-2-13 23-13 23-4-16 13-23 13-23zm507 30c4 37 8 75 18 116-2-37-8-77-18-116zm-529 14c-16 34-26 66-31 97 13-31 22-63 31-97zm554 137c8 28 26 59 11 88l7 21-4-20c13-11 4-68-14-89zm-598 5c-19 25-50 25-26 61-16-35 9-25 26-61zm-129 153c-9-17 26-23 26-23-16-5-42 14-26 23zm828 50l2 37c2-9 3-19-2-37zm-886 51c18 4 35 0 35 0-17-4-35 0-35 0zm-86 4c26 4 51-2 51-2-31-2-51 2-51 2zm979 9l3 15-10 7c19-1 16-5 7-22zm-84 97c-31 17-68 19-105 20 51 7 84-1 105-20zm-280 15l-102 1c33 8 67 6 102-1z"/><g fill="none"><path stroke="#bab8ad" stroke-width="3" d="M458 116c16-57 50-86 97-93 48-26 127 7 163 63"/><path stroke="#000" stroke-width=".7" d="M695 965c7 15 4 32 9 43s10 32 10 41M369 760c15 2 51-26 75-43m28-53c-11-80-1-103 1-151m41 246v-52m-66 253c16-45 5-79 30-83m274 39h19m-106 121c6-4 11-1 35-8m-186 51c-10-33-25-30-4-38m-19 20c18 21 33 18 56 45m-65-66c10-4 18 3 15-9m-99 125l44 25m-171-18s34 8 54 17m459-663c6-14 11-28 9-42m-341 660c13 18 2 20 17 38m-181-108c-4-29-2-31 12-18m96-13c26 1 52 5 78 13m40-13c19 10 37 21 55 37m80 40c8-1 16-4 23-9m-29-29s32-16 112-28M572 900c-14 8-7 15-4 70m-71-90c19 6 10-46 14-107m61 26c-1-85-8-159 5-267m-162 58v-51m6-15c-4-10-8-20-8-32m95 149c-3-25 8-112 9-139m28 283l-1-63m83 35l-2-56m-1-35c4-39-2-47 0-127m-13 219c-1-80-3-172-2-233m57 375l3-117m7 95c-5-55-1-103-3-157m82 80l-31-113-1-81m109 93l-19-148m-82-7c0-13-2-25-5-39m-175 586l78 16m41 19c18-14 29-29 54-40m92-43c20 12 15 15 14 41m-79-163c13 4 4 55 11 85 7 29 22 12 31 28M632 878c2 14 0 23 2 28 1 5 16 8 16 12 0 36 5 72 13 107 2 4 6 5 7 10m-79-574c19 9 24 0 35 0m13-3c3-2 7-4 12-3m26-13c19-3 15-15 55-18m-35 9c5-5 11-9 17-12m-155 33c8-1 4 3 16 2m-84-35c14 9 28 15 42 22m-154 698c-5-27-25-38-14-54 10-16 36-4 2-41 4-12 11-13 16-19 0-30-19-44 5-55m55-117c23-78 2-84 19-96m-29 87c-2 4 2 11 9 14"/><path stroke="#000" stroke-width="1.5" d="M672 349l2-18m77-133c0-17 2-32-5-60m-18 163c2-16 3-33 3-52m-22-62c-2-25-1-48-18-78m8 52c-5-9-9-17-11-25m-79-49c-4-14-6-29-7-45m38 36s-8-16-11-26m12 90c-11-27-20-54-25-81m-6 56c-5-17-9-35-11-54m-14 85l-5-19m-4-16c-3-19-5-40-3-64m-18 53l-1-21m1-13c1-9 2-18 5-26m-21 37l1-20m3-12c2-7 5-13 11-18m-53 96s1-18 6-32m-12 248c0-13 0-25-2-43m-2 65c-5-11-8-38-10-73m-23-174c7-19 19-37 37-56m188 377s12-28 14-51m8 60c5-21 5-33 12-54m-42 86c8-13 13-28 13-28M531 306l12 2m-19-30l5 1m33-105s3 7 8 11m115 7s9-1 12-8m-41-10s8-4 10-12m-149 11s4 9 11 12m-40 16s5 4 14 2m6-4s1 6 4 11m-14-16c21-20 39-27 57-23m75-6c20-4 38-1 54 14m25-80l11 10m-14-21v7m-261 93l9-7m-25 25l8-13m74 727c-5 31-25 53-9 97 63 6 99 24 150 21m137-165c0-86-1-167-9-232m138 490l14 43c5 13 7 21 13 31M545 346c18 8 46 20 56 20 9 0 41-16 65-36m-89 72c3 4 6 7 11 9m25-8l5-4m6 6c7 0 21-5 22-10m5 9c7-3 15-6 23-12m-10 27c16-3 17 1 28-3m-64 4c12 1 15 6 29 4m-74-2c6-2 4 1 12 0m-46-21c9 14 14 42 34 21 8-6 15-12 17-19 9 1 16 5 17 15 4 9 7 5 11 2 2-10 13-13 17-3 8 8 16 11 20-2 0 0 9-19 14-19s6 5 11 10m-152-13l8-5m-15-4l9 12c7 0 14 0 15 6m-38-9c7 4 6 7 18 8m-33 10c5-1 7-4 7-10 11 5 13 13 16 20 11-11 11-20 25-20s24 8 27 13m-71 1c10-2 15 2 19 6h35m57 2v15c4 1 9 3 16 8m-54-2c7-3 14-5 18-5-2-5-3-11-2-17m-202-3c16-11 11 17 13 34m20-7c9-9 5 12 27 43m-26 5c0-30-7-41-2-56 15-6 29-8 44-8m37 75c13-16 22-44 31-22m88 1c7-2 7 4 11 8 1 11 0 23 3 33m75-42c7-10 22-30 29-20 1 12-1 27 2 34m-51-54c18 5 44 7 49 17m11-35c12-1 23-1 34 2m-8 32c4-14 9-24 17-26l7 31m-54 227l6-36M455 757l5-3m333 214s15 9 26 19m32 73c-6 8 4 33 10 41s32 14 36 39c10 19 5 19 19 47m39 94l-18-60m-43-38c16 29 8 63 16 78m-238-100s23 31 30 59c6 28-2 70-2 70m80-193c36 11 70 24 101 40m-158-42c36-4 114-24 123 1m-136 3c7 1 16 4 27 11m-220-60c41 27 100 28 109 35s40 48 43 59 18-4 18-4m-193-60c15 23 23 33 37 57m-199 7c112-8 96-9 119 31m-148-102l50-29m-76 78c8 0 21-8 60-23m129 95c20 17 23 28 29 28m-127-43c13-10 28-17 48-6m-186 84c-2-17-2-35 9-58m-104 15s2-11 8-19c24-11 22 3 21 9m596-609l9-40m81 469c12 11 24 23 27 35m-92-486l-1-45"/><path stroke="#fbf7f6" stroke-width="1.5" d="M718 218c-3 65-15 126-38 181M581 90c6 28 16 53 27 75"/></g><path fill="#c35a87" stroke="#ffa2d8" stroke-width="1.5" d="M663 225v-6m-5 7v-6m-7 5l3-5m-110 13v-6m-7 9v-7m-7 6l3-6"/></svg>