<svg viewBox="0 0 798 905"><defs><linearGradient id="c" x1="470" x2="470" y1="45" y2="235" gradientUnits="userSpaceOnUse"><stop stop-color="#b77842" offset="0"/><stop stop-color="#c79446" offset=".4"/><stop stop-color="#aa442e" offset="1"/></linearGradient><linearGradient id="a" x1="440" x2="440" y1="5" y2="625" gradientUnits="userSpaceOnUse"><stop stop-color="#b97d46" offset="0"/><stop stop-color="#b26835" offset=".2"/><stop stop-color="#ae7d40" offset=".6"/><stop stop-color="#b14528" offset="1"/></linearGradient><linearGradient id="b" x1="340" x2="340" y1="570" y2="495" gradientUnits="userSpaceOnUse"><stop stop-color="#eb4f2b" offset="0"/><stop stop-color="#f6755d" offset="1"/></linearGradient></defs><g stroke="#000" stroke-width=".7"><path d="M313 100c-4-75 0-87 11-90s77 32 77 32m192 17s48 1 54 9-3 25-24 72" fill="#e32a1e"/><path d="M493 674s16 33 41 33c-41-33-50-82-19-128-13 37 11 129 48 134-20-9-22-29-24-49 11 12 25 21 45 25 13 5 26 12 42 8-20-2-39-20-53-41l5-3c18 16 40 21 57 0-14 9-31 6-45-8 42-32 63-94 63-139 35 94 14 137-23 159 63 3 74-124 29-226 17 30 36 59 58 86 12 46 12 101-25 133 34-17 46-58 48-94 6 48 8 92-24 128 63-44 54-122 29-178 26 29 51 82 45 132 7-20 9-37 4-62-5-80-42-108-106-175-42-117-28-167-38-253 16 20 30 38 29 83 11-75-20-110-49-120 35-3 67 10 67 10s-23-27-69-22c-21-36-22-58-83-85-34-19-15-22-62-9 0 0-19-12-23-12l-52 12c-10 3-44 34-44 34-17 4-14 4-15 13l-4 2c-2-16-57-33-85-11 46-6 75 14 75 14-32 1-83 34-104 98 0 0 25-41 62-62-27 37-2 49-30 165-7 91-211 226-139 348 6 20 21 38 35 32-48-19-28-107 18-169-5 57 3 103 24 126 0 16 12 38 12 38 5 16 8 29 21 39-19-29-11-82 3-123-7 80 30 135 68 141-28-9-46-60-44-106m42-318c41 63-102 181-102 307-10-35-11-87 23-159 50-65 84-97 79-148zm307 283c1 27-11 56-28 78-7-10-13-23-16-40 11-21 26-32 44-38zm-41 92s-12-18-15-30c0 0 8 17 18 27" fill="url(#a)"/><path d="m737 905-5-11-158-353-35 31-41 85c-2 18-2 36 3 63 40 65 58 65 74 87 22 10 45 21 67 36s45 36 61 62m-315 0c-33-41-25-77-84-200 0 0-14-10-16-16-3-5-7-29-7-31 1-3 11-14 11-14 0-13-3-13-13-22l7-132-207 90c-30 3-47 9-55 8s-26-23-22-30c10-17 8-25 27-71 18-47 52-69 79-102 27-32 25-36 43-57l-2-3s6-29 10-34 17-19 22-19 29 4 34 9c18-3 54-27 61-28s4-6 16-2c0 0 27-20 31-20s25 12 33 24 24 21 10 25c9 9 23 18 5 19-11 1-34-27-56-27 17 13 22 16 27 23l12 13c20 15-1 17-16 6l-91 19-9-1c-4 5-4 11-5 17 0 0-18 18-21 19s-18-3-18-3l-20 29-72 59 27 34c19-14 42-29 56-28 10-6 20-10 33-15l34-27c3-4 14-12 22-13 41-20 63-5 84-5 13-6 26-8 41-8l6-4c-1-29-11-43-4-47l107-27c-1 10-1 36 5 43 21-33 64-34 94 27 0 0 5 1 8 5 3 3 6 27 6 31s-4 9-4 9l4 37c13 8 13 33 34 126l1 22h8c14 18 21 18 24 28 4 10 4 37 9 45s21 27 32 47 39 119 66 172" fill="#e32c2c"/><path d="M331 252c7 0 10 3 17 12-21-11-15-12-33-11l7-6m-7 25 10-1s10 8 22 11c0 0 11 13 24 17-14 0-27-15-27-15l-19-9h-6m-24 48c-16 16-30 14-48 10 0-2-2-5-5-8-12 12-17 3-21-5 15 2 27-9 32-20 8 0 15-7 22-15 4 3 9 6 15 8 17 21 31 17 27 8l-13-14 5 1 18 12c4 6 7 11 14 16-10 4-19 2-26 3m42-19c3 5-3 8-3 8l-11-12c6 3 11-1 14 4zm-72 213c-30 12-145 63-206 67-9-4-16-1-23-5s-22-20-22-27 35-41 39-49 12-55 41-88c11-12 47-23 52-23s8 6 8 6c-19 31-37 62-45 93 12 1 1-6 57-3l21-17c0-7 2-12 20-12l69-4c8 0 8 3 16 7-5 11-10 23-9 37m254 8c20 40 30 64 48 82s24 25 33 23 17-8 17-17c0 0 3 14 9 22-5 43-3 48 12 66s5 44 10 65 59 87 55 137c-1 9-9 13-9 13-39-72-65-89-83-123s-13-63-25-90-52-83-71-138c0 0-17 18-29 7s-29-74-29-107c0 0 12-26 26-21 0 0 28 33 52 51 0 0-1 9-9 12m16 420c7-43 4-81-5-98 8-2 8-2 28 8 3 3 10 41 3 90m55 0c-2-24-9-53-14-58l-5-4c9 0 8 0 33 19 2 4 8 18 10 43" fill="#1d232e"/><path d="M390 518c-10 4-38 26-35 55s71 51 105 10-21-94-32-97-28 28-38 32zm-87-23c-28 21-53 44-56 58s4 45 32 69c11 3 37-41 37-54-1-28-34-36-13-73z" fill="url(#b)"/><path d="M477 290c-28 8-82 37-81 43s5 12 10 13c6 8 10 21 15 21s7-24 56-77zm-32 85c16 12 39-2 36-11-10-13-35-2-36 11zm-41-12c-13 14-9 17 1 24 7-14 8-10-1-24z" fill="#1e699b"/><path d="m360 100-25 110c15 15 23 29 26 36s9 1 15 4c9 29 11 39 28 58l6 28h21c13 11 22 18 30 18s17-12 25-15 38-19 49-28 14-20 18-28c6-3 6-8 19-17s17-11 19-17l9-149" fill="#dbad96"/></g><path d="M491 275c-7 1-17-2-20 2 6 13 16 4-3 42 0 0 5 9-7 12 2 16 2 17-8 20-9-4-65-49-70-84 0 0-4-32 7-53 0 0-3 30 17 55 0 0-9-23-6-42s22-8 48-57l17 14-26 6 21 23 14-6c9 27 24 45 34 70l-6-43 15-7-1 32 17-39s11 37 11 44-34 27-38 25-4-12-14-35" fill="#f9dfce"/><path d="M359 21s-20 5-33 25l-7-2s6-17 30-27m-28 41v9l-3 1s-2-4-2-12m306 5s17 15 22 31l-5 12s-6-30-32-44M394 196l11 7s10-9 20-11h14s8 1 14 5l-7-2 10 11c-5 2-2 4-1 9l-3-3-19 22c-5 0-13 1-13-2 0 0-13-9-20-19 0 0 1-5 4-9m166 23-7 4v5l-8 8-20 8s-2-2-7-2l-9-26 9-7-6 1c11-3 17-8 24-8l5 1s12 8 12 18m-79 55c-5 0 3-4 8-9 1 7-5 7-8 9zm-8-5s-2 2-3 0zm145 138c-6-4-7-22-5-27zm-66-17c16 3 16 28-3 28s-13-31 3-28zM381 501c-5 0-3 3-8 3-1-2 5-10 8-14 7-1 20-12 10-10-4 6-6 5-8 4s0-32-1-37c-4-2-14 0-18 3s-12-4-20-2c9-8 4-9 16-27 17 0 9 7 35-2-1 45 5 39 23 1 33-1 18 0 49-14-7 15-12 28-8 32 0 0-4 1-7 4-48 0-32 5-58 34 8 0 7 2-4 13-5 2-10 4-11 9l8-3m-9-13c1 2-10 21-13 22s-7 1-9-2 6-18 10-20 11-2 12 0zm-18 13 12-10c-3-6-12 5-12 10zm-2 5c1 2 5 2 7 1s11-11 8-15m229 50c6-8 21-13 33-11 12 39 2 25 15 71-16-47-7-39-16-67 0 0-8-2-8 4 0 0-8-5-12 3 0 0-6-7-12 3m33 25-6 2v-7m-130 72c-5 1-15 2-15-1l2-7h13l10-13m-111 62c-25 0-22-36 0-36 23 0 25 36 0 36z"/><path d="M351 439c14 8 25 0 34 3 3 1 0 22 3 29s21-21 28-30 20 2 42-13c1-7 4-10 3-13-12 4-11 11-41 10-6 3-8 21-20 31s-6-25-7-29-20 5-37 1" fill="#23994a"/><path d="m442 207 1-8s6 4 9 13l-2 5m-42 5c0-4-2-6-1-11 0 0 4-7 8-9 0 0-2 4-2 10m132 27c4-6 6-13 7-19 8 3 9 10 3 24 0 0-4 4-10 6m-19-26s-2 9 0 17l-2 5c-3-5-2-18-2-18" fill="#a9b7bf"/><path d="M442 207s6 4 8 10c-4 10-11 15-17 17-2-2-3 0-3-3 8-5 10-15 12-23-4 6-13-5-7-8s10 1 7 7zm-22 25s-9-3-12-10c0 0 1-8 5-10 1 9 3 14 8 19m126-14c7 1 4 13-3 11s-4-12 3-11zm-2 33-10 2s4-1 1-3c0 0 5-4 9-10 0 0 3 3 0 11zm-17-2v2s-2 0-4-4c0 0 0-3 2-5z" fill="#fff"/><path d="M438 212c-4 23-17 22-22 3 0 0-1-9 9-11-7 14 5 27 9 4m111 25c-10 18-20 14-16-5 0 0 3-5 7-5-6 11-3 25 6 7" fill="#2774b1"/><path d="M421 217c-3 0-3 5 0 5s3-5 0-5zm110 17c-3 0-3 5 0 5s3-5 0-5z" fill="#b9ddfc"/><path d="M439 291c12 4 14 1 31 4s16 5 29 6c-7 1-22 20-32 21-9 0-12-6-17-12s-7-15-11-19z" fill="#2d1a18"/><path d="M444 294c8 0 21-1 41 5l3 9c-6 4-11 11-20 14s-26-21-24-28z" fill="#cb7072"/><g stroke="#000" stroke-width=".7"><path d="M185 344c0 3-3 6-7 8l-21-27s3-9 10-9" fill="#f2c44e"/><path d="m416 174-12 1c29 1 40 4 62 17 7 5 10 8 20 10-12-5-17-11-17-11-16-8-27-16-53-17zm95 35 6 1c24-11 39-8 54-9-18-3-42 0-60 8z" fill="#3f211d"/><path d="M554 401c-13 1-14 25 2 23s11-24-2-23zm-285 13c-7 0-13 10-13 10 7 1 27-8 25-14-11 0-12 4-12 4zm121 250c-3 3 6 8 7 3 15 5 25-19 10-27s-32 12-17 24z" fill="#74736f"/><path d="M465 34c-21-15-13-14-37 2-39 12-61 39-68 50-29 20-40 49-46 82 6-22 23-38 38-56-22 37-28 82-13 121-3-19 4-41 12-63h3c-1 33 4 67 22 102-3-19-3-34-1-45 9 16 15 23 21 27-14-25-15-44-15-62 4 25 11 48 25 67-6-18-8-35-7-52 5-23 20-53 31-66-5 25-7 55-14 67 13-21 27-50 37-75-1 48 6 67 15 91-3-24-1-47 0-71 4 42 24 88 46 113l-5-13 4-60c3 20 4 38 5 57 8-34 14-64 11-95 7 14 14 28 20 46 3 20 2 34 2 49 4-21 8-42 8-64 13 39 20 74 15 98 8-26 11-45 14-63 4 24 2 45-5 62 17-25 30-52 33-86 4 21 4 40 4 58 11-38 18-76 1-116 11 13 29 37 35 62-3-31-9-60-42-93-7-15-45-64-68-61-51-25-37-26-69 0" fill="url(#c)"/><path d="M351 229v19m0 95c-6 17-14 34-23 51m9-74c-10 27-27 51-43 76m51-111-1 11m-10-80-3 18m-13-77c-4 33-1 52-1 77m-12-29c0 19-5 40-5 40m51 76c-1 14 0 28 2 46m1-75-1 5m8-51-2 13m0 62c-6 31-10 61-1 78m5-102-3 16m5-15c-4 60 19 94 19 94m-15-135-1 12m13 56c-6 35 9 66 9 66m-5-113s-15 71 14 113m158-111c0 28 13 59 13 59m-21-47c4 23 16 45 16 45m-23-33c0 14 7 30 7 30m-13-24 7 24m-31-8 8 21m111-167c13 74 17 142 57 229m-72-129c6 67 21 89 32 131m-78-143c46 122 81 140 83 238m26 160s-10-14-12-31m-36-88-6-17m-6 19-6-16m-11 3c3 19 15 26 22 35l7 15m130-78s26 38 33 76M663 415c21 46 44 72 54 110m-153-40c8 0 24 16 24 16s8 2 5-6-20-22-20-22m-70-34 27 36c4 7 23 69 23 69m-28 57c-9 25-2 65-2 65m32-3c8 10 18 18 29 26m-42-46c3 7 7 13 11 18m13-66c-13 24-28 49-27 69m2-31c-3 13-2 31-2 31m25-93c-9 15-18 42-18 42M269 336c-15 31-30 51-45 87m-5-35c-19 24-34 49-45 73m33 3c-15-1-12-3-22-5m57 72c-4 9-5 26-5 26m-117 32c0 12 4 25 4 25m88 0c-1 12 1 27 1 27m18-105s-19 43-19 72m378 37c-21 16-43 20-43 20s24-14 35-30m-381-54c6 22 18 38 18 38s-11-6-18-16m73-192c0 3-9 11-9 11m4-8-9 10m302-20c-5 5-11 20-11 20m6-23c-5 4-11 20-11 20m10 129c-18 13-27 11-32 0m15 22c-16 12-23 25-33 43m-47-177s12 5 12 12 2 59 23 101c12 23-8 73-8 73m-27-22c-27 27-73 22-97-4m8-90c-16 18-25 47-19 64m48 89c10 0 13-13 3-16s-15 7-9 13m4 9c7-20 1-22-7-3m35-2c9-33-36-51-48-16m29 34c-22 4-29-14-29-14m103 20c-16 22-59 58-59 58m39-5c-38 33-52 87-52 87l-2 24m83-124c-33 6-66 47-66 47m152 34s-91-27-109-27-52 39-53 46 2 28 2 28m-50-42c19 49 17 60 34 93m-6 0s-18-39-30-78-29-88-28-97m56 175c-17-30-21-47-32-77s-23-65-30-96m48-134-1 12c-11 23-12 35-16 45s-14 20-19 34-3 30-6 41l-6 2c-16-40-26-43-35-67-2-37 7-25-7-46m33-30c-2 14-13 29-13 29m266-207c3 18-8 37-28 22m-38-68c-21 22-30 56-6 121m12-130c-22 35-19 54-18 87m73-44c-12-15-36-8-33 22m-26-59c-18 9-37 29-45 50m17-42c15-11-10-13-10-13m2 38-7-6-1-9c-41 3-28-11-4-22l-1-4m-24-7c-19 37-13 39-32 3m-2 80c0-22-4-22-4-22m7-21v14m0-7c-19 17-26 11-10 25m4-28c-13 11-23 11-39 30m52-32c-4 12-14 19-14 19s-3 2-3 11m-23-22c-31 18-32 42-36 47s-21 10-29 33m51-78c-31 14-31 24-46 59m32-10s-20 15-24 20-9 20-17 27m-60-34c30 11 23 11 51 41m-2-81c10-20-18-17-18-17m-22 13s-7 8-7 19m-116 51c-13 32-26 30-48 49m153-204-5 5c-33 0-43-28-43-28l1-7m12 7s9 14 21 21l18 2m-22 15c-13 0-24-9-24-9m-6-8-14-22 1-14m21 71-15-4c-4-1-28-33-28-33m64-47c-13 4-15-3-25 8m176-9c-13-15-11-12-18-16m-33-11c-17 0-17 0-23-2m23 21-5-3c-20 0-39-6-39-6m-5 15h-10m48 9c-16-10-19-17-23-17s-10 3-19 12m171-152-3 11m27-26-4 18M335 85c-6 12-7 24-7 37m3 15 4 15m-35-36c-13 40-12 71-32 140m90-186c-3-15-5-13 6-23m134-17-18 2m14-15-13 8m25 13c-15 4-29 15-29 15m-13-2s-11-7-20-7l16 10m5 5c-12 4-22 13-22 13m152 192c11 97 47 121 64 175m29-30c24 55 52 95 52 155M633 155l-2 25m-25-66s11 13 15 25m10-12c-2-9 1-12-3-20m15 41 7 8m-73-68c19 28 43 56 39 109m-39-54s13 29 11 78m-43-99c11 24 13 44 14 64m-23-40s11 29 13 55M500 72s26 34 29 83m-17-24c2 27 1 62 1 62m-20-58c4 66 16 118 16 118m-41-134v34M320 77s-19 12-27 24m107-42c-13 9-21 12-40 27m-11-26c0 11 1 22 3 32m-7-30-9 6-1 17m0-8s-14 10-14 62m2 9c3 10 9 18 9 18m23-5-4 9m16-63c-8 21-11 42-13 63m56-26s-11 29-11 63m-3-100s-18 41-15 85l-6 35m215 8h-4m-11 22c-7 4-9 8-14 9m13-21c-9 10-12 20-21 38m-122 53-27-28m131-98c-5 0-9 4-9 4m-68-19s-6-5-18-5m-86-12-6 1m6 4s-5 4-9 4m10 10c-5 0-7 14-7 14 3 7 11 15 11 15m15 14 2 10" fill="none"/></g><path d="m317 43-3-21-3 20m195-4c-23 0-29 15-29 15s23-15 29-15zm-30 18c26 2 24-11 63 23 0 0-24-46-63-23zM312 70l8-3-2-10-7-2m41 37-3-28s-4 16-3 33m282 10 10-1s11-24 11-33l-25 26m-290 13 1-27s-7 13-7 37m-11 112c-1-25-1-51 1-78l-4 12 7-29c0-33 6-49 6-49-18 40-35 161-35 161m119-98c0-21 19-55 19-55-75 96-24 161-24 161-6-17-7-34-7-52 7-33 31-66 31-66s-8 54-14 67c16-25 37-75 37-75-3 51 15 91 15 91-3-18 0-71 0-71 11 80 46 113 46 113s-43-99-44-174c0 0-9 29-9 49l-1-43c-8 26-27 56-27 56s9-29 9-50m76 1s11 32 11 50c0 0 19 40 20 46 3 17 2 49 2 49 17-89-33-145-33-145zm-157 21c-29 53-27 95-22 107-4-25 12-63 12-63h3zm-30 11 4 15 4-12-3-9m188 92c0-40-12-92-12-92l1 62 5 57m-177-10c19 23 41 35 25 40 30 25-2 20-12 9-10-12-14-20-42-19l26 20s6 11 18 20c8-19-12-8-7-21 13 8 24 26 24 26 0 45 15 76 15 76l-4 1s-20-27-20-85c0 0-6 61 7 87l-18 7 13-3c-5 9-20 13-30 46-23 15-32 28-35 48-23-25-27-27-66-33 27 9 32 31 32 31-114 56-114 34-155 43 20-13 41-48 41-48 13-2 31 4 37-4l-23-2c8-34 62-105 62-105-47 47-73 94-73 94l-27 19c9-43 65-122 65-122 40 15 31-27 67-29-20 36-46 69-64 117l-7 3c17-2 17 8 17 8 14-12 89-11 105-6-14-26-28-2-109-8l11-4c12-39 55-71 81-123 17-1 15-5 33-3-9 31-40 78-40 78l6-2s34-50 43-76l8-1c-8 27-33 75-33 75 21-1 32 5 46 5 0 0-7-13-6-77l10-2c-17 0-33-24-33-24-15-5-14-12-29-12l18 18c0 19-28-9-28-9-22-21-20 0-37 2-34 35-60 26-54-3-6 29-3 23 10 40-6 0-16-11-16-11 6 16 27 32-1 17l7 6c-22 29-29 7-46-13 6 16 11 29 17 40C78 494 108 540 4 569c17 23 20 21 38 17s52-6 83-15c0 79 34 75 34 75-39-13-25-77-25-77l46-14c0 26 27 56 27 56 7 58 27 69 27 69-21-35-7-97 12-151l9-3-2 15c31-35 55-43 61-62s32-22 39-45c10-24 25-27 46-43l6-4s5-6 5-13c-17 13-17 1-8-9l-3-20c11 2 17 57 30 16l10 11s-2 8 6 8c0 0 9 15 24 22 0 0 8-18 24-18-18 39 8 105 8 105l-6-44c4-11 16-30 28-21l-8-11c-15 10-20 24-20 24-4-105 69-141 112-54l7 4c-5 14 2 27 2 27 0 5-6 7-6 7 6 36 1 45 2 60s8 35 11 15 14 6 21 44c2-105-47-197-47-197s56 75 56 163c28 71 14 111 14 111l8 8c19-94-55-262-55-262 27 57 61 120 97 162 0 0 7 26 7 61 18-80-76-166-101-340 0 0 8-33 8-52-6-30-25-60-25-60 14 56-7 105-7 105 0-30-14-68-14-68 0 35 6 57 4 82l-8 7 7-39c-10-40-36-80-36-80s7 26 7 45c0 0 16 43 16 78-8 5-15 14-22 19-8 18-9 26-46 45-10 6-25 12-32 18-18 17-28 2-44-10h-21l15 12c-19-5-40-11-18-25l-3-15c-17-19-21-34-28-58l-2-1 1-22 9 14 2-11c-10-38-2-82-2-82-29 56-13 114-13 114l-5-13-25-33m-10 18 3-19c-5-18-2-49-2-49l-7-13c-3 41 2 79 2 79m306-77-2 29 21 121s-13-81-12-141M444 294c-2 8 10 21 10 21s-7-11-2-15 25-2 28 5-5 14-5 14l13-11-3-9c-21-7-41-5-41-5zm-43 120v39l20-33c-8-14 1-20-2-26m137 6-11 21 5 4 12-22zm-291 23c11-11 9-12 9-12l7-1c-7-17-31 9-31 9 0 4 6 5 6 5s6-10 13-10l-9 10m315-14-6 2c0 26-27 18-27 18 17 21 38 1 33-20zm-328 26c37 8 47-20 47-20h-11s-9 12-31 12m224 291c-55 34-78 80-78 80l30-32-10 31s41-104 113-35l-30-43-4-39s16 26 37 26c-28-22-35-52-35-52l14-29c4 40 28 87 50 87 0 0-23-6-23-48 0 0 16 20 44 24 26 13 42 8 42 8-25 0-53-41-53-41l5-3c18 18 38 13 38 13 27 40 6 76 48 128 23 32 59 76 73 111h18C639 722 581 510 503 439c8 25 28 45 28 45l-23-21 12 26-14 15 2 9-20 25-3-9c-21 79-121 86-135 36 0 55 102 101 140-11 9 115-69 190-69 190l55-49m97-222c5 16 18 21 9 23 15 14 19-1-9-23zm163 54 4 37c7 50 0 83 0 83 21-47-4-120-4-120zm-516 13s-11 27-11 62c0 0-13-28-13-53zm95 188c-10-43 2-90 2-90-32 44-7 53-32 44 0 0-24-30-24-77l28 26c28 0 44-85 44-85-37 84-74 53-74 53l-11-24c0 95 56 130 56 130m287-83-9 13s-16-28-16-40l5-8m-15 39 16 20-3 3m-235-20c0 82 49 114 49 114-42-48-49-114-49-114zm332 0c0 14 11 39 17 42-3-17 1-26-17-42zm-55 28s-11-2-21-12l9-7m-202 0c-21 0-11 21-11 21 7-28 28-7 28-7s4-14-17-14zm24 18c-6 21-35 24-41 7l-3 2c4 32 51 31 52-8m34 248s-36-23-36-75c-16 25-3 75-3 75" fill-opacity=".5"/><path d="M171 303c6-12 3-24 17-29l-8-1-6 4m249 70-19-13v-8l-7 9m153 0c-13 0-14 9-14 9 45 24 59 64 59 64s-2-73-45-73zm-80 30h-12l-9 9m-51-2-1 6 9-2m-304 18c-28 32-61 53-76 107 32-67 46-60 76-107zm220 0c-24 0-39 7-39 7l10 6m264 92 4-12-14-36-12-12m-244 32-25-15h-23m-36 13-20 16h-17l-24 13-6 10c66-19 50-33 111-40l-16-6m207 33c-10 0-30 20-30 32s31 6 38-1 2-31-8-31zm-158 17-16 14v14c10 0 35-28 35-34m325 136v-15l-19-36-19-21m50 101c27 91 56 125 87 181-39-97-48-84-84-193m17 246c0-44-166-93-166-93 46 43 135 52 153 93" fill="#fff" fill-opacity=".5"/><path d="M422 92c-13 7-23 22-23 22l8-24c-13 8-23 24-23 24l5-20-19 21c0-14 14-42 14-42-28 19-33 46-33 46l18-26-5 41 17-23-3 17 18-21-1 19m37-35c-15 8-23 26-23 26zm10 0c-9 6-12 18-12 18zm44 8-6 22-6-18 6 38 2-17 7 23m36-46 22 38c-5-22-22-38-22-38zm-24 46 2-11 5 19 1-23 3 13c0-25-6-43-6-43l-3 27-8-20m99 51-2-23 5 8-2-16 12 16c-5-24-23-43-23-43l7 28-7-6 2 16-25-33 7 25-24-23 25 40-4-15 9 9-5-21m-57-16 9 36c0-20-9-36-9-36zM269 255l12-5 6-29-11 26 8-53m351 105c5 29 16 60 28 92l-3-28c5 17 15 32 26 45-9-25-18-51-29-76v21z" fill="#deb059"/></svg>